<svg width="24" height="24" viewBox="0 0 24 24" fill="none" xmlns="http://www.w3.org/2000/svg">
<g clip-path="url(#clip0_36_657)">
<path d="M8.152 17.112C7.98133 17.112 7.84267 17.0747 7.736 17C7.64 16.9147 7.58133 16.808 7.56 16.68C7.54933 16.5413 7.58133 16.3867 7.656 16.216L12.056 6.2C12.152 5.98667 12.264 5.83733 12.392 5.752C12.5307 5.656 12.68 5.608 12.84 5.608C13 5.608 13.144 5.656 13.272 5.752C13.4107 5.83733 13.5227 5.98667 13.608 6.2L18.024 16.216C18.1093 16.3867 18.1413 16.5413 18.12 16.68C18.1093 16.8187 18.056 16.9253 17.96 17C17.864 17.0747 17.7307 17.112 17.56 17.112C17.368 17.112 17.2133 17.064 17.096 16.968C16.9787 16.8613 16.8827 16.712 16.808 16.52L15.624 13.784L16.264 14.12H9.384L10.04 13.784L8.872 16.52C8.776 16.7227 8.67467 16.872 8.568 16.968C8.46133 17.064 8.32267 17.112 8.152 17.112ZM12.824 7.256L10.248 13.32L9.864 13.016H15.784L15.432 13.32L12.856 7.256H12.824Z" fill="#0A0707"/>
</g>
<defs>
<clipPath id="clip0_36_657">
<rect width="24" height="24" fill="white"/>
</clipPath>
</defs>
</svg>
