<svg width="24" height="24" viewBox="0 0 24 24" fill="none" xmlns="http://www.w3.org/2000/svg">
<g clip-path="url(#clip0_36_663)">
<path d="M9.112 17C8.87733 17 8.696 16.9413 8.568 16.824C8.45067 16.696 8.392 16.5147 8.392 16.28V6.44C8.392 6.20533 8.45067 6.02933 8.568 5.912C8.696 5.784 8.87733 5.72 9.112 5.72H12.904C13.6827 5.72 14.3387 5.83733 14.872 6.072C15.416 6.296 15.832 6.62667 16.12 7.064C16.408 7.50133 16.552 8.03467 16.552 8.664C16.552 9.368 16.344 9.95467 15.928 10.424C15.5227 10.8933 14.968 11.2027 14.264 11.352V11.128C15.064 11.224 15.688 11.512 16.136 11.992C16.5947 12.472 16.824 13.1067 16.824 13.896C16.824 14.8987 16.4987 15.6667 15.848 16.2C15.1973 16.7333 14.28 17 13.096 17H9.112ZM9.672 15.944H12.968C13.8213 15.944 14.4613 15.7733 14.888 15.432C15.3147 15.0907 15.528 14.5733 15.528 13.88C15.528 13.176 15.3147 12.6587 14.888 12.328C14.4613 11.9867 13.8213 11.816 12.968 11.816H9.672V15.944ZM9.672 10.76H12.712C13.544 10.76 14.1733 10.5893 14.6 10.248C15.0373 9.90667 15.256 9.416 15.256 8.776C15.256 8.11467 15.0373 7.61867 14.6 7.288C14.1733 6.94667 13.544 6.776 12.712 6.776H9.672V10.76Z" fill="#0A0707"/>
</g>
<defs>
<clipPath id="clip0_36_663">
<rect width="24" height="24" fill="white"/>
</clipPath>
</defs>
</svg>
