<svg width="24" height="24" viewBox="0 0 24 24" fill="none" xmlns="http://www.w3.org/2000/svg">
<g clip-path="url(#clip0_36_674)">
<path d="M13.272 17.144C12.1627 17.144 11.2133 16.9093 10.424 16.44C9.63467 15.9707 9.02667 15.304 8.6 14.44C8.184 13.576 7.976 12.5467 7.976 11.352C7.976 10.456 8.09333 9.656 8.328 8.952C8.57333 8.23733 8.92 7.63467 9.368 7.144C9.82667 6.64267 10.3867 6.25867 11.048 5.992C11.7093 5.71467 12.4507 5.576 13.272 5.576C13.9333 5.576 14.5627 5.672 15.16 5.864C15.7573 6.04533 16.2747 6.31733 16.712 6.68C16.8507 6.78667 16.9413 6.90933 16.984 7.048C17.0373 7.176 17.0427 7.304 17 7.432C16.968 7.54933 16.904 7.65067 16.808 7.736C16.7227 7.81067 16.616 7.848 16.488 7.848C16.36 7.848 16.216 7.79467 16.056 7.688C15.672 7.37867 15.2507 7.14933 14.792 7C14.3333 6.85067 13.8373 6.776 13.304 6.776C12.4613 6.776 11.7467 6.95733 11.16 7.32C10.5733 7.672 10.1307 8.18933 9.832 8.872C9.53333 9.55467 9.384 10.3813 9.384 11.352C9.384 12.3227 9.53333 13.1547 9.832 13.848C10.1307 14.5307 10.5733 15.0533 11.16 15.416C11.7467 15.768 12.4613 15.944 13.304 15.944C13.8267 15.944 14.3227 15.8693 14.792 15.72C15.2613 15.56 15.6933 15.3253 16.088 15.016C16.248 14.9093 16.392 14.8613 16.52 14.872C16.648 14.872 16.7547 14.9093 16.84 14.984C16.9253 15.0587 16.984 15.1547 17.016 15.272C17.0587 15.3893 17.0587 15.512 17.016 15.64C16.984 15.768 16.904 15.88 16.776 15.976C16.328 16.36 15.8 16.6533 15.192 16.856C14.5947 17.048 13.9547 17.144 13.272 17.144Z" fill="#0A0707"/>
</g>
<defs>
<clipPath id="clip0_36_674">
<rect width="24" height="24" fill="white"/>
</clipPath>
</defs>
</svg>
