<svg width="24" height="24" viewBox="0 0 24 24" fill="none" xmlns="http://www.w3.org/2000/svg">
<g clip-path="url(#clip0_36_676)">
<path d="M9.112 17C8.87733 17 8.696 16.9413 8.568 16.824C8.45067 16.696 8.392 16.5147 8.392 16.28V6.44C8.392 6.20533 8.45067 6.02933 8.568 5.912C8.696 5.784 8.87733 5.72 9.112 5.72H12.2C14.024 5.72 15.432 6.2 16.424 7.16C17.416 8.12 17.912 9.51733 17.912 11.352C17.912 12.2693 17.784 13.08 17.528 13.784C17.2827 14.4773 16.9147 15.064 16.424 15.544C15.9333 16.024 15.336 16.3867 14.632 16.632C13.928 16.8773 13.1173 17 12.2 17H9.112ZM9.704 15.88H12.104C12.8507 15.88 13.496 15.784 14.04 15.592C14.5947 15.4 15.0533 15.1173 15.416 14.744C15.7893 14.3707 16.0667 13.9013 16.248 13.336C16.4293 12.76 16.52 12.0987 16.52 11.352C16.52 9.848 16.152 8.72267 15.416 7.976C14.68 7.21867 13.576 6.84 12.104 6.84H9.704V15.88Z" fill="#0A0707"/>
</g>
<defs>
<clipPath id="clip0_36_676">
<rect width="24" height="24" fill="white"/>
</clipPath>
</defs>
</svg>
