<svg width="24" height="24" viewBox="0 0 24 24" fill="none" xmlns="http://www.w3.org/2000/svg">
<g clip-path="url(#clip0_49_460)">
<g clip-path="url(#clip1_49_460)">
<path d="M5.89101 7.84335L7.01644 8.21879H7.21913L7.44569 7.08511C7.47694 6.92972 7.52382 6.75611 7.58502 6.57339L6.70437 4.8121L7.73736 1.71358C7.85845 1.34986 7.66227 0.956635 7.29812 0.835107L6.6397 0.615489C6.27599 0.493961 5.88232 0.690576 5.76123 1.05472L4.63753 4.42625C4.52116 4.77569 4.54816 5.15703 4.71262 5.48658L5.89101 7.84335ZM24.2131 15.744L21.9236 12.3099C21.7967 12.1197 21.6249 11.9638 21.4234 11.8559C21.2218 11.748 20.9968 11.6915 20.7682 11.6914H17.3854L20.3797 10.6342C20.6728 10.5364 20.9249 10.3438 21.0963 10.0868L23.4227 6.59683C23.6354 6.27781 23.549 5.84639 23.23 5.63372L22.6523 5.2483C22.3333 5.03563 21.9019 5.122 21.6892 5.44101L19.4947 8.73224L16.8689 9.60768H15.302L14.8519 7.35724C14.7569 6.88111 14.098 4.74656 11.8298 4.74656C9.56158 4.74656 8.90272 6.88111 8.80767 7.35724L8.35758 9.60768H6.79074L4.16531 8.73224L1.97043 5.44101C1.75776 5.122 1.32677 5.03563 1.00732 5.2483L0.429634 5.63372C0.110623 5.84639 0.0242518 6.27738 0.236925 6.59683L2.56331 10.0868C2.73473 10.3438 2.98686 10.5364 3.27989 10.6342L6.27425 11.691H2.89144C2.66277 11.6911 2.43764 11.7475 2.23603 11.8554C2.03441 11.9633 1.86253 12.1193 1.73562 12.3095L-0.553439 15.744C-0.766113 16.063 -0.680175 16.4944 -0.360731 16.7071L0.21696 17.0925C0.535971 17.3052 0.967394 17.2188 1.18007 16.8998L3.2634 13.7748H5.30594L2.66574 17.9992C2.52782 18.2199 2.45473 18.475 2.45481 18.7353V22.1077C2.45481 22.4914 2.76557 22.8021 3.14925 22.8021H3.8437C4.22738 22.8021 4.53814 22.4914 4.53814 22.1077V18.9345L7.75342 13.79C7.70958 14.3998 7.66314 15.01 7.66314 15.622C7.66314 17.9254 9.43224 20.0243 11.8298 20.0243C14.2274 20.0243 15.9965 17.9254 15.9965 15.622C15.9965 15.01 15.9496 14.3998 15.9062 13.79L19.1215 18.9345V22.1077C19.1215 22.4914 19.4322 22.8021 19.8159 22.8021H20.5104C20.894 22.8021 21.2048 22.4914 21.2048 22.1077V18.7348C21.2048 18.4744 21.1315 18.2192 20.9939 17.9987L18.3537 13.7743H20.3962L22.4795 16.8993C22.6922 17.2184 23.1236 17.3047 23.4427 17.0921L24.0203 16.7066C24.3398 16.494 24.4257 16.063 24.2131 15.744ZM16.9552 4.8121L16.0746 6.57339C16.1358 6.75611 16.1827 6.92972 16.2139 7.08511L16.4405 8.21879H16.6432L17.7686 7.84335L18.947 5.48658C19.0285 5.32343 19.0771 5.14582 19.09 4.96389C19.1029 4.78195 19.0798 4.59926 19.0221 4.42625L17.8984 1.05472C17.7773 0.69101 17.3836 0.493961 17.0199 0.615489L16.3615 0.835107C15.9978 0.956635 15.8012 1.34986 15.9223 1.71358L16.9552 4.8121Z" fill="black"/>
</g>
</g>
<defs>
<clipPath id="clip0_49_460">
<rect width="24" height="24" fill="white"/>
</clipPath>
<clipPath id="clip1_49_460">
<rect width="25" height="25" fill="white" transform="translate(-0.670166 -0.80899)"/>
</clipPath>
</defs>
</svg>
