<svg width="24" height="24" viewBox="0 0 24 24" fill="none" xmlns="http://www.w3.org/2000/svg">
<g clip-path="url(#clip0_36_302)">
<g clip-path="url(#clip1_36_302)">
<path d="M12 17C14.7614 17 17 14.7614 17 12C17 9.23858 14.7614 7 12 7C9.23858 7 7 9.23858 7 12C7 14.7614 9.23858 17 12 17Z" stroke="#DBF6FD" stroke-width="2" stroke-linecap="round" stroke-linejoin="round"/>
<path d="M12 1V3" stroke="#DBF6FD" stroke-width="2" stroke-linecap="round" stroke-linejoin="round"/>
<path d="M12 21V23" stroke="#DBF6FD" stroke-width="2" stroke-linecap="round" stroke-linejoin="round"/>
<path d="M4.21997 4.22L5.63997 5.64" stroke="#DBF6FD" stroke-width="2" stroke-linecap="round" stroke-linejoin="round"/>
<path d="M18.3601 18.36L19.7801 19.78" stroke="#DBF6FD" stroke-width="2" stroke-linecap="round" stroke-linejoin="round"/>
<path d="M1 12H3" stroke="#DBF6FD" stroke-width="2" stroke-linecap="round" stroke-linejoin="round"/>
<path d="M21 12H23" stroke="#DBF6FD" stroke-width="2" stroke-linecap="round" stroke-linejoin="round"/>
<path d="M4.21997 19.78L5.63997 18.36" stroke="#DBF6FD" stroke-width="2" stroke-linecap="round" stroke-linejoin="round"/>
<path d="M18.3601 5.64L19.7801 4.22" stroke="#DBF6FD" stroke-width="2" stroke-linecap="round" stroke-linejoin="round"/>
</g>
</g>
<defs>
<clipPath id="clip0_36_302">
<rect width="24" height="24" fill="white"/>
</clipPath>
<clipPath id="clip1_36_302">
<rect width="24" height="24" fill="white"/>
</clipPath>
</defs>
</svg>
